#N canvas 15 279 359 450 10;
#X obj 196 368 dac~;
#X msg 196 61 open ./Media/0.aiff;
#X msg 196 86 open ./Media/1.aiff;
#X msg 196 111 open ./Media/2.aiff;
#X msg 196 136 open ./Media/3.aiff;
#X msg 196 161 open ./Media/4.aiff;
#X msg 196 186 open ./Media/5.aiff;
#X msg 196 211 open ./Media/6.aiff;
#X msg 196 236 open ./Media/7.aiff;
#X msg 196 261 open ./Media/8.aiff;
#X msg 196 286 open ./Media/9.aiff;
#X obj 196 311 Player;
#X obj 28 15 PedalMux;
#X obj 28 40 select 1 2 3 4 5 6 7 8 9 10;
#X obj 132 289 / 127;
#X obj 196 336 *~;
#X floatatom 132 315 5 0 0 0 - - -, f 5;
#X obj 232 336 *~;
#X msg 56 254 \; pd dsp 1;
#X msg 132 260 127;
#X obj 132 237 loadbang;
#X connect 1 0 11 0;
#X connect 2 0 11 0;
#X connect 3 0 11 0;
#X connect 4 0 11 0;
#X connect 5 0 11 0;
#X connect 6 0 11 0;
#X connect 7 0 11 0;
#X connect 8 0 11 0;
#X connect 9 0 11 0;
#X connect 10 0 11 0;
#X connect 11 0 15 0;
#X connect 11 1 17 0;
#X connect 12 0 13 0;
#X connect 12 1 14 0;
#X connect 13 0 1 0;
#X connect 13 1 2 0;
#X connect 13 2 3 0;
#X connect 13 3 4 0;
#X connect 13 4 5 0;
#X connect 13 5 6 0;
#X connect 13 6 7 0;
#X connect 13 7 8 0;
#X connect 13 8 9 0;
#X connect 13 9 10 0;
#X connect 14 0 16 0;
#X connect 15 0 0 0;
#X connect 16 0 15 1;
#X connect 16 0 17 1;
#X connect 17 0 0 1;
#X connect 19 0 14 0;
#X connect 20 0 19 0;
#X connect 20 0 18 0;
