#N canvas 482 87 277 216 10;
#X obj 25 175 dac~;
#X obj 25 116 Player;
#X obj 25 12 PedalMux;
#X obj 110 85 / 127;
#X obj 25 143 *~;
#X floatatom 110 111 5 0 0 0 - - -, f 5;
#X obj 61 143 *~;
#X msg 149 55 \; pd dsp 1;
#X msg 110 58 127;
#X obj 110 33 loadbang;
#X obj 25 87 path_finder;
#X obj 25 58 msgchange;
#X connect 1 0 4 0;
#X connect 1 1 6 0;
#X connect 2 0 11 0;
#X connect 2 1 11 1;
#X connect 2 2 3 0;
#X connect 3 0 5 0;
#X connect 4 0 0 0;
#X connect 5 0 4 1;
#X connect 5 0 6 1;
#X connect 6 0 0 1;
#X connect 8 0 3 0;
#X connect 9 0 8 0;
#X connect 9 0 7 0;
#X connect 10 0 1 0;
#X connect 11 0 10 0;
#X connect 11 1 10 1;
