#N canvas 32 473 450 300 10;
#X obj 112 26 inlet;
#X obj 112 151 outlet;
#X obj 179 147 outlet;
#X floatatom 112 122 5 0 0 0 - - -, f 5;
#X obj 179 27 inlet;
#X floatatom 179 123 5 0 0 0 - - -, f 5;
#X obj 144 91 bng 15 250 50 0 empty empty empty 17 7 0 10 -262144 -1
-1;
#X obj 112 56 change;
#X obj 179 57 change;
#X connect 0 0 7 0;
#X connect 3 0 1 0;
#X connect 4 0 8 0;
#X connect 5 0 2 0;
#X connect 6 0 5 0;
#X connect 6 0 3 0;
#X connect 7 0 3 0;
#X connect 7 0 6 0;
#X connect 8 0 5 0;
#X connect 8 0 6 0;
