#N canvas 137 95 336 194 10;
#X msg 99 70 set \$1;
#X obj 32 97 makefilename not-set-yet;
#X obj 40 45 delay 1;
#X obj 99 20 inlet;
#X obj 32 19 inlet;
#X msg 32 119 open \$1;
#X obj 32 141 outlet;
#X floatatom 32 70 5 0 0 0 - - -, f 5;
#X obj 99 45 makefilename ./Media/%d/%%d.aiff;
#X connect 0 0 1 0;
#X connect 1 0 5 0;
#X connect 2 0 7 0;
#X connect 3 0 8 0;
#X connect 4 0 2 0;
#X connect 4 0 7 0;
#X connect 5 0 6 0;
#X connect 7 0 1 0;
#X connect 8 0 0 0;
