#N canvas 137 95 360 364 10;
#X msg 26 127 set \$1;
#X obj 26 205 makefilename not-set-yet;
#X obj -108 8 delay 1;
#X obj 26 23 inlet;
#X obj -108 -14 inlet;
#X msg 26 227 open \$1;
#X floatatom 40 74 5 0 0 0 - - -, f 5;
#X msg 40 52 1;
#X floatatom 84 74 5 0 0 0 - - -, f 5;
#X msg 84 52 2;
#X floatatom 88 169 5 0 0 0 - - -, f 5;
#X msg 88 147 1;
#X floatatom 132 169 5 0 0 0 - - -, f 5;
#X msg 132 147 2;
#X obj 26 249 outlet;
#X floatatom -41 37 5 0 0 0 - - -, f 5;
#X floatatom 94 27 5 0 0 0 - - -, f 5;
#X obj 26 105 makefilename ./Media/%d/%%d.aiff;
#X connect 0 0 1 0;
#X connect 1 0 5 0;
#X connect 2 0 15 0;
#X connect 3 0 16 0;
#X connect 3 0 17 0;
#X connect 4 0 2 0;
#X connect 4 0 15 0;
#X connect 5 0 14 0;
#X connect 6 0 17 0;
#X connect 7 0 6 0;
#X connect 8 0 17 0;
#X connect 9 0 8 0;
#X connect 10 0 1 0;
#X connect 11 0 10 0;
#X connect 12 0 1 0;
#X connect 13 0 12 0;
#X connect 15 0 1 0;
#X connect 17 0 0 0;
