#N canvas 609 203 785 400 10;
#X msg 80 201 1;
#X msg 118 201 2;
#X msg 154 201 3;
#X msg 191 201 4;
#X msg 229 201 5;
#X msg 267 201 6;
#X msg 303 201 7;
#X msg 341 201 8;
#X msg 387 201 9;
#X msg 423 201 10;
#X obj 193 11 pgmin;
#X obj 118 165 bng 15 250 50 0 empty empty empty 17 7 0 10 -262144
-1 -1;
#X obj 193 53 mod 10;
#X obj 193 91 select 1 2 3 4 5 6 7 8 9 0;
#X obj 154 165 bng 15 250 50 0 empty empty empty 17 7 0 10 -262144
-1 -1;
#X obj 191 165 bng 15 250 50 0 empty empty empty 17 7 0 10 -262144
-1 -1;
#X obj 229 165 bng 15 250 50 0 empty empty empty 17 7 0 10 -262144
-1 -1;
#X obj 267 165 bng 15 250 50 0 empty empty empty 17 7 0 10 -262144
-1 -1;
#X obj 303 165 bng 15 250 50 0 empty empty empty 17 7 0 10 -262144
-1 -1;
#X obj 341 165 bng 15 250 50 0 empty empty empty 17 7 0 10 -262144
-1 -1;
#X obj 387 165 bng 15 250 50 0 empty empty empty 17 7 0 10 -262144
-1 -1;
#X obj 423 165 bng 15 250 50 0 empty empty empty 17 7 0 10 -262144
-1 -1;
#X obj 80 165 bng 15 250 50 0 empty empty empty 17 7 0 10 -262144 -1
-1;
#X obj 80 11 notein;
#X obj 80 88 select 100 123;
#X obj 464 11 ctlin;
#X obj 464 88 pack;
#X floatatom 464 53 5 0 0 0 - - -, f 5;
#X floatatom 511 53 5 0 0 0 - - -, f 5;
#X floatatom 555 53 5 0 0 0 - - -, f 5;
#X obj 464 126 route 42 1 27;
#X obj 464 164 unpack 0 0;
#X floatatom 464 202 5 0 0 0 - - -, f 5;
#X obj 539 165 unpack 0 0;
#X obj 527 272 nbx 5 60 -1e+37 1e+37 0 0 empty empty empty 0 -8 0 45
-99865 -262144 -203904 0 256;
#X obj 59 272 nbx 5 60 -1e+37 1e+37 0 0 empty empty empty 0 -8 0 45
-99865 -262144 -203904 0 256;
#X obj 293 272 nbx 5 60 -1e+37 1e+37 0 0 empty empty empty 0 -8 0 45
-99865 -262144 -203904 0 256;
#X obj 293 360 outlet;
#X obj 527 360 outlet;
#X obj 59 360 outlet;
#X text 342 359 Left Continuous Pedal;
#X text 577 361 Right Continuous Pedal;
#X text 106 361 Button;
#X obj 173 361 outlet;
#X text 220 360 page;
#X obj 252 33 / 10;
#X obj 252 54 i;
#X msg 95 43 0;
#X obj 296 73 send page;
#X obj 95 67 send page;
#X obj 173 340 receive page;
#X connect 0 0 35 0;
#X connect 1 0 35 0;
#X connect 2 0 35 0;
#X connect 3 0 35 0;
#X connect 4 0 35 0;
#X connect 5 0 35 0;
#X connect 6 0 35 0;
#X connect 7 0 35 0;
#X connect 8 0 35 0;
#X connect 9 0 35 0;
#X connect 10 0 12 0;
#X connect 10 0 45 0;
#X connect 11 0 1 0;
#X connect 12 0 13 0;
#X connect 13 0 22 0;
#X connect 13 1 11 0;
#X connect 13 2 14 0;
#X connect 13 3 15 0;
#X connect 13 4 16 0;
#X connect 13 5 17 0;
#X connect 13 6 18 0;
#X connect 13 7 19 0;
#X connect 13 8 20 0;
#X connect 13 9 21 0;
#X connect 14 0 2 0;
#X connect 15 0 3 0;
#X connect 16 0 4 0;
#X connect 17 0 5 0;
#X connect 18 0 6 0;
#X connect 19 0 7 0;
#X connect 20 0 8 0;
#X connect 21 0 9 0;
#X connect 22 0 0 0;
#X connect 23 0 24 0;
#X connect 23 0 47 0;
#X connect 24 0 22 0;
#X connect 24 1 11 0;
#X connect 25 0 27 0;
#X connect 25 1 28 0;
#X connect 25 2 29 0;
#X connect 26 0 30 0;
#X connect 27 0 26 1;
#X connect 28 0 26 0;
#X connect 30 0 31 0;
#X connect 30 1 31 0;
#X connect 30 2 31 0;
#X connect 30 3 33 0;
#X connect 31 0 32 0;
#X connect 32 0 36 0;
#X connect 33 1 34 0;
#X connect 34 0 38 0;
#X connect 35 0 39 0;
#X connect 36 0 37 0;
#X connect 45 0 46 0;
#X connect 46 0 48 0;
#X connect 47 0 49 0;
#X connect 50 0 43 0;
